<svg xmlns="http://www.w3.org/2000/svg" width="16" height="16" viewBox="0 0 16 16">
  <path fill-rule="evenodd" d="M2.89 1.422h3.157a1.5 1.5 0 011.5 1.5v3.156a1.5 1.5 0 01-1.5 1.5H2.89a1.5 1.5 0 01-1.5-1.5V2.922a1.5 1.5 0 011.5-1.5zm3.157 1H2.89a.5.5 0 00-.5.5v3.156a.5.5 0 00.5.5h3.156a.5.5 0 00.5-.5V2.922a.5.5 0 00-.5-.5zM6.047 8.328H2.89a1.5 1.5 0 00-1.5 1.5v3.156a1.5 1.5 0 001.5 1.5h3.156a1.5 1.5 0 001.5-1.5V9.828a1.5 1.5 0 00-1.5-1.5zm-3.156 1h3.156a.5.5 0 01.5.5v3.156a.5.5 0 01-.5.5H2.89a.5.5 0 01-.5-.5V9.828a.5.5 0 01.5-.5zM12.953 8.328H9.797a1.5 1.5 0 00-1.5 1.5v3.156a1.5 1.5 0 001.5 1.5h3.156a1.5 1.5 0 001.5-1.5V9.828a1.5 1.5 0 00-1.5-1.5zm-3.156 1h3.156a.5.5 0 01.5.5v3.156a.5.5 0 01-.5.5H9.797a.5.5 0 01-.5-.5V9.828a.5.5 0 01.5-.5zM12.953 1.422H9.797a1.5 1.5 0 00-1.5 1.5v3.156a1.5 1.5 0 001.5 1.5h3.156a1.5 1.5 0 001.5-1.5V2.922a1.5 1.5 0 00-1.5-1.5zm-3.156 1h3.156a.5.5 0 01.5.5v3.156a.5.5 0 01-.5.5H9.797a.5.5 0 01-.5-.5V2.922a.5.5 0 01.5-.5z" clip-rule="evenodd"/>
</svg>
