<svg xmlns="http://www.w3.org/2000/svg" width="16" height="16" viewBox="0 0 16 16">
  <path fill-rule="evenodd" d="M13.512 2.444c.525.437.613.875.613 1.181h.044v8.75c-.044.306-.132.744-.613 1.181-.306.307-.787.569-1.356.788-1.094.437-2.581.656-4.156.656-1.575 0-3.063-.219-4.2-.656-.569-.219-1.05-.481-1.357-.788-.525-.437-.612-.875-.612-1.181v-8.75c0-.306.087-.744.569-1.181.35-.306.787-.569 1.356-.788C4.938 1.263 6.425 1 8 1c1.575 0 3.063.262 4.156.656.569.219 1.05.482 1.356.788zM8 1.875c-1.487 0-2.844.219-3.85.612-.875.307-1.4.744-1.4 1.138 0 .394.525.831 1.4 1.138 1.006.393 2.362.612 3.85.612s2.844-.219 3.85-.612c.875-.35 1.4-.744 1.4-1.138 0-.394-.525-.788-1.4-1.138-1.006-.393-2.362-.612-3.85-.612zm3.85 11.637c-1.006.394-2.362.613-3.85.613-1.487 0-2.844-.219-3.85-.613-.875-.35-1.4-.787-1.4-1.137V9.4c.306.219.656.394 1.05.569 1.138.437 2.625.656 4.2.656 1.575 0 3.063-.219 4.156-.656.438-.175.788-.35 1.094-.569V8c0 .394-.525.831-1.4 1.137-1.006.394-2.362.613-3.85.613-1.487 0-2.844-.219-3.85-.613-.875-.35-1.4-.787-1.4-1.137V5.025c.306.219.656.394 1.05.569 1.138.437 2.625.656 4.2.656 1.575 0 3.063-.219 4.2-.656.438-.175.788-.35 1.094-.569v7.35c-.044.35-.569.787-1.444 1.137z" clip-rule="evenodd"/>
</svg>
