<svg width="16" height="16">
  <path d="M5.331 5.375h5.381c.22 0 .394-.175.394-.438 0-.262-.175-.437-.393-.437H5.33c-.219 0-.394.175-.394.438 0 .262.175.437.394.437zm6.213 1.75H4.456c-.219 0-.394.175-.394.438 0 .262.175.437.394.437h7.088c.218 0 .393-.175.393-.438 0-.262-.175-.437-.393-.437z"/>
  <path fill-rule="evenodd" clip-rule="evenodd" d="M13.381 2.05L15 10.144v3.543A1.29 1.29 0 0113.687 15H2.313A1.29 1.29 0 011 13.687v-3.543L2.619 2.05A1.307 1.307 0 013.887 1h8.226c.612 0 1.137.438 1.268 1.05zm-9.494-.175c-.175 0-.35.131-.393.35L1.962 9.75h4.725c.263 0 .438.175.438.438v.874h1.75v-.874c0-.263.175-.438.437-.438h4.726l-1.532-7.525a.426.426 0 00-.437-.35H3.887zm10.238 11.813c0 .262-.175.437-.438.437H2.313c-.263 0-.438-.175-.438-.438v-3.062H6.25v.7c0 .35.263.613.612.613h2.275c.35 0 .613-.263.613-.613v-.7h4.375v3.063z"/>
</svg>
