<svg xmlns="http://www.w3.org/2000/svg" width="16" height="16" viewBox="0 0 16 16">
  <path d="M5.375 2.75h-1.75v.875h1.75V2.75z"/>
  <path fill-rule="evenodd" d="M2.75 1h10.5c.481 0 .875.394.875.875V4.5a.878.878 0 01-.875.875H2.75a.878.878 0 01-.875-.875V1.875c0-.481.394-.875.875-.875zm10.5.875V4.5H2.75V1.875h10.5z" clip-rule="evenodd"/>
  <path d="M6.731 9.706H3.056c-.656 0-1.181-.481-1.181-1.093V7.3c0-.569.525-1.05 1.181-1.05h3.675c.263 0 .438.175.438.438 0 .262-.175.437-.438.437H3.056c-.175 0-.306.131-.306.219v1.312c0 .088.131.219.306.219h3.675c.263 0 .438.175.438.438 0 .262-.219.393-.438.393zM3.056 14.125h3.675a.438.438 0 00.438-.438c0-.262-.175-.437-.438-.437H3.056c-.175 0-.306-.131-.306-.219V11.72c0-.088.131-.219.306-.219h3.675c.263 0 .438-.175.438-.438 0-.262-.175-.437-.438-.437H3.056c-.656 0-1.181.525-1.181 1.094v1.312c0 .569.525 1.094 1.181 1.094zM10.625 10.625c0 .481.394.875.875.875a.878.878 0 00.875-.875.878.878 0 00-.875-.875.878.878 0 00-.875.875z"/>
  <path fill-rule="evenodd" d="M14.078 9.804l.047.121.744.131s.219.525 0 1.313l-.744.043a1.931 1.931 0 01-.262.7l.48.525s-.218.525-.918.963l-.525-.481c-.219.131-.481.219-.744.306l-.043.7c-.788.219-1.313 0-1.313 0l-.044-.656c-.262-.044-.525-.175-.744-.306l-.524.437c-.7-.438-.92-.963-.92-.963l.438-.48c-.131-.22-.262-.482-.306-.745l-.656-.043c-.219-.788 0-1.313 0-1.313l.7-.043s.262-.657.262-.7c0-.214-.174-.37-.31-.491-.03-.028-.06-.054-.083-.078.437-.7.962-.919.962-.919l.525.481c.175-.131.438-.218.656-.262L10.8 7.3s.525-.219 1.313 0l.043.744c.219.043.438.131.656.262l.57-.525s.524.219.962.919l-.525.569c.107.143.186.346.259.535zm-4.766.82c0 1.226.962 2.188 2.187 2.188a2.166 2.166 0 002.188-2.187 2.166 2.166 0 00-2.188-2.188 2.166 2.166 0 00-2.187 2.188z" clip-rule="evenodd"/>
</svg>
