<svg xmlns="http://www.w3.org/2000/svg" width="16" height="16" viewBox="0 0 16 16">
  <path fill-rule="evenodd" d="M9.15 8.004L6.47 8h-.017c-.502-.02-.975-.18-1.332-.451-.399-.302-.62-.711-.62-1.151 0-.374.165-.735.463-1.019.205-.195.464-.347.757-.448.107-.337.334-.639.66-.871.395-.28.902-.435 1.43-.435.717 0 1.376.283 1.776.752.474.057.914.235 1.255.51.426.343.66.802.66 1.293 0 .505-.279.993-.764 1.337a2.753 2.753 0 01-1.588.487zm-.558-.874h.56c.394 0 .788-.118 1.08-.325.147-.105.396-.327.396-.625 0-.49-.58-.913-1.292-.946a.438.438 0 01-.348-.2c-.209-.323-.67-.534-1.177-.534-.663 0-1.237.37-1.28.822a.438.438 0 01-.343.387c-.468.102-.81.392-.81.69 0 .368.504.699 1.103.727l2.111.004z" clip-rule="evenodd"/>
  <path d="M11.939 12.37h-1.75a.437.437 0 100 .876h1.75a.437.437 0 100-.875z"/>
  <path fill-rule="evenodd" d="M14.748 11.247L13.3 3.335a1.737 1.737 0 00-1.709-1.453l-7.172-.01h-.003a1.74 1.74 0 00-1.713 1.452l-1.45 7.925a2.627 2.627 0 002.372 3.746h8.751a2.627 2.627 0 002.373-3.748zM3.565 3.467a.856.856 0 01.849-.721h.001l7.173.01c.422 0 .779.304.847.721l1.235 6.61a2.614 2.614 0 00-1.295-.342h-8.75c-.47 0-.913.124-1.295.341l1.235-6.62zm8.81 10.652a1.753 1.753 0 001.531-2.596 1.749 1.749 0 00-1.531-.903h-8.75a1.752 1.752 0 00-1.52 2.615c.3.528.87.885 1.52.885h8.75z" clip-rule="evenodd"/>
</svg>
