<?xml version="1.0" encoding="UTF-8"?>
<svg width="24px" height="24px" viewBox="0 0 24 24" version="1.1" xmlns="http://www.w3.org/2000/svg" xmlns:xlink="http://www.w3.org/1999/xlink">
    <title>-mockplus-</title>
    <g id="WinStore" stroke="none" stroke-width="1" fill="none" fill-rule="evenodd">
        <g id="总览" transform="translate(-1056.000000, -171.000000)" fill="#3C8CF3" fill-rule="nonzero">
            <g id="-mockplus-" transform="translate(1036.000000, 151.000000)">
                <g id="-mockplus-" transform="translate(20.000000, 20.000000)">
                    <g id="服务器" transform="translate(2.000000, 2.000000)">
                        <path d="M15.75,3.75 L17.625,3.75 L17.625,1.875 L15.75,1.875 L15.75,3.75 Z M13.375,1.875 C12.875,1.875 12.375,2.25 12.375,2.875 C12.375,3.5 12.875,3.75 13.375,3.75 C13.875,3.75 14.375,3.375 14.375,2.75 C14.375,2.125 13.875,1.875 13.375,1.875 Z M10,1.875 C9.5,1.875 9,2.25 9,2.875 C9,3.5 9.5,3.75 10,3.75 C10.5,3.75 11,3.375 11,2.75 C11,2.125 10.5,1.875 10,1.875 Z M18.875,5.375 L1.125,5.375 C0.5,5.375 0,4.875 0,4.25 L0,1.25 C0,0.625 0.5,0 1.125,0 L18.875,0 C19.5,0 20,0.5 20,1.25 L20,4.25 C20,4.875 19.5,5.375 18.875,5.375 Z M15.75,11 L17.625,11 L17.625,9.125 L15.75,9.125 L15.75,11 Z M13.375,9.125 C12.875,9.125 12.375,9.5 12.375,10.125 C12.375,10.625 12.75,11.125 13.375,11.125 C14,11.125 14.375,10.75 14.375,10.125 C14.375,9.625 13.875,9.125 13.375,9.125 L13.375,9.125 Z M10,9.125 C9.5,9.125 9,9.5 9,10.125 C9,10.625 9.375,11.125 10,11.125 C10.5,11.125 11,10.75 11,10.125 C11,9.625 10.5,9.125 10,9.125 Z M18.875,12.625 L1.125,12.625 C0.5,12.625 0,12.125 0,11.375 L0,8.5 C0,7.875 0.5,7.25 1.125,7.25 L18.875,7.25 C19.5,7.25 20,7.75 20,8.5 L20,11.5 C20,12.125 19.5,12.625 18.875,12.625 Z M15.75,18.375 L17.625,18.375 L17.625,16.5 L15.75,16.5 L15.75,18.375 Z M13.375,16.375 C12.875,16.375 12.375,16.75 12.375,17.375 C12.375,18 12.75,18.375 13.375,18.375 C14,18.375 14.375,18 14.375,17.375 C14.375,16.75 13.875,16.375 13.375,16.375 Z M10,16.375 C9.5,16.375 9,16.75 9,17.375 C9,18 9.375,18.375 10,18.375 C10.5,18.375 11,18 11,17.375 C11,16.75 10.5,16.375 10,16.375 Z M18.875,20 L1.125,20 C0.5,20 0,19.5 0,18.75 L0,15.75 C0,15.125 0.5,14.5 1.125,14.5 L18.875,14.5 C19.5,14.5 20,15 20,15.75 L20,18.75 C20,19.5 19.5,20 18.875,20 Z" id="Shape"></path>
                    </g>
                </g>
            </g>
        </g>
    </g>
</svg>