<?xml version="1.0" encoding="UTF-8"?>
<svg width="24px" height="24px" viewBox="0 0 24 24" version="1.1" xmlns="http://www.w3.org/2000/svg" xmlns:xlink="http://www.w3.org/1999/xlink">
    <title>-mockplus-</title>
    <defs>
        <linearGradient x1="20.8825367%" y1="4.44214876%" x2="72.4003287%" y2="95.5578512%" id="linearGradient-1">
            <stop stop-color="#FFA780" offset="0%"></stop>
            <stop stop-color="#F04848" offset="100%"></stop>
        </linearGradient>
        <path d="M9.4256324,1.30634656 C10.3002811,-0.435448853 11.8719982,-0.435448853 12.7466469,1.30634656 L21.6601119,17.8626538 C22.5347606,19.6044492 21.6601119,21 19.7385353,21 L2.26146469,21 C0.33988808,21 -0.534760586,19.6070923 0.33988808,17.8626538 L9.4256324,1.30634656 Z" id="path-2"></path>
        <filter x="-9.1%" y="-9.5%" width="118.2%" height="119.0%" filterUnits="objectBoundingBox" id="filter-3">
            <feGaussianBlur stdDeviation="1.5" in="SourceAlpha" result="shadowBlurInner1"></feGaussianBlur>
            <feOffset dx="-1" dy="-1" in="shadowBlurInner1" result="shadowOffsetInner1"></feOffset>
            <feComposite in="shadowOffsetInner1" in2="SourceAlpha" operator="arithmetic" k2="-1" k3="1" result="shadowInnerInner1"></feComposite>
            <feColorMatrix values="0 0 0 0 0.779749774   0 0 0 0 0.102134145   0 0 0 0 0.0405327245  0 0 0 0.199355332 0" type="matrix" in="shadowInnerInner1"></feColorMatrix>
        </filter>
        <linearGradient x1="48.8961579%" y1="13.1522042%" x2="52.0124647%" y2="100%" id="linearGradient-4">
            <stop stop-color="#2A0604" offset="0%"></stop>
            <stop stop-color="#9B2B0F" offset="100%"></stop>
        </linearGradient>
    </defs>
    <g id="WinStore" stroke="none" stroke-width="1" fill="none" fill-rule="evenodd">
        <g id="总览" transform="translate(-1068.000000, -363.000000)" fill-rule="nonzero">
            <g id="Group-8" transform="translate(1036.000000, 275.000000)">
                <g id="Group-4" transform="translate(16.000000, 56.000000)">
                    <g id="-mockplus-" transform="translate(16.000000, 32.000000)">
                        <g id="警示" transform="translate(1.000000, 1.500000)">
                            <g id="Shape">
                                <use fill="url(#linearGradient-1)" xlink:href="#path-2"></use>
                                <use fill="black" fill-opacity="1" filter="url(#filter-3)" xlink:href="#path-2"></use>
                            </g>
                            <g id="感叹号" transform="translate(9.000000, 5.500000)" fill="url(#linearGradient-4)">
                                <path d="M1.68848986,8.87436351 L2.3117437,8.87436351 C2.48090805,8.87436351 2.62134251,8.74658491 2.63330551,8.58173845 L3.19915562,0.837375415 C3.21255792,0.655051752 3.06470267,0.5 2.8775938,0.5 L1.12239675,0.5 C0.935287889,0.5 0.787656939,0.655051752 0.800816243,0.837356723 L1.36666635,8.58171975 L1.36666635,8.58171977 C1.38079799,8.74846069 1.52114145,8.87607884 1.68847117,8.87436351 L1.68848986,8.87436351 Z M1.99831298,10.0682539 C1.33773083,10.0682539 0.802012444,10.6041965 0.802012444,11.2655076 L0.802012444,11.2655804 C0.801784231,11.9265476 1.33741865,12.4625519 1.99838585,12.4627799 C1.99838592,12.4627799 1.99838598,12.4627799 1.99838605,12.4627799 C2.65898689,12.4627799 3.19468651,11.9268373 3.19468651,11.2655075 L3.19468651,11.265283 C3.19468651,10.6043812 2.65906168,10.0685414 1.99816177,10.0682539 L1.99831298,10.0682539 Z" id="Shape"></path>
                            </g>
                        </g>
                    </g>
                </g>
            </g>
        </g>
    </g>
</svg>