<?xml version="1.0" encoding="UTF-8"?>
<svg width="24px" height="24px" viewBox="0 0 24 24" version="1.1" xmlns="http://www.w3.org/2000/svg" xmlns:xlink="http://www.w3.org/1999/xlink">
    <title>-mockplus-</title>
    <g id="WinStore" stroke="none" stroke-width="1" fill="none" fill-rule="evenodd">
        <g id="总览" transform="translate(-414.000000, -171.000000)" fill="#3C8CF3" fill-rule="nonzero">
            <g id="-mockplus-" transform="translate(394.000000, 151.000000)">
                <g id="-mockplus-" transform="translate(20.000000, 20.000000)">
                    <g id="存储卷" transform="translate(2.000000, 2.000000)">
                        <path d="M19.5845248,8.10362878 L12.6936331,8.10362878 C10.9909076,8.10362878 9.61090328,9.41544803 9.61090328,11.0345332 L9.61090328,11.9708983 L1.39909734,11.9708983 C0.626370514,11.9708983 8.52271456e-06,11.3745349 8.52271456e-06,10.6399881 L8.52271456e-06,7.97997882 C8.52271456e-06,7.24543205 0.626370514,6.64997844 1.39909734,6.64997844 L18.1854359,6.64997844 C18.9581628,6.64997844 19.5845248,7.24543418 19.5845248,7.97997882 L19.5845248,8.10361535 L19.5845248,8.10362878 Z M9.61090328,13.299991 L9.61090328,18.620001 L1.39909734,18.620001 C0.626370514,18.620001 8.52271456e-06,18.0245453 8.52271456e-06,17.2900006 L8.52271456e-06,14.6299914 C8.52271456e-06,13.8954446 0.626370514,13.299991 1.39909734,13.299991 L9.61090328,13.299991 L9.61090328,13.299991 Z M1.39909734,0 L18.1854359,0 C18.9581628,0 19.5845248,0.595455742 19.5845248,1.33000038 L19.5845248,3.99000965 C19.5845248,4.72455642 18.957253,5.32001003 18.1845261,5.32001003 L1.39999862,5.32001003 C0.626364122,5.32001003 0,4.72455428 0,3.99091732 L0,1.33001316 C0,0.595466395 0.626361992,0 1.39908882,0 L1.39909734,0 Z M1.39909734,1.33000038 L1.39909734,3.99000965 L4.1963588,3.99000965 L4.1963588,1.33000038 L1.39999223,1.33000038 L1.39909734,1.33000038 Z M1.39909734,7.98001291 L1.39909734,10.6400222 L4.1963588,10.6400222 L4.1963588,7.98001291 L1.39999223,7.98001291 L1.39909734,7.98001291 Z M1.39909734,14.6309203 L1.39909734,17.2909296 L4.1963588,17.2909296 L4.1963588,14.6309203 L1.39999223,14.6309203 L1.39909734,14.6309203 Z M19.9890767,10.9536375 L19.9981676,10.9536375 L19.9981676,11.305456 C19.5599872,12.2727288 17.6854438,12.9990937 15.4409017,12.9990937 C13.2018141,12.9990937 11.331824,12.275456 10.886363,11.3136378 L10.886363,11.1372741 L10.886363,11.137274 C10.8821033,11.1010667 10.8799992,11.0646401 10.8799992,11.028183 C10.8799992,9.88909188 12.9199963,8.96545334 15.4363491,8.96545334 C17.8972616,8.96545334 19.902699,9.84909042 19.9890767,10.9536368 L19.9890767,10.9536375 Z M15.4409088,13.8981783 C17.6863671,13.8981783 19.5590845,13.1718133 19.9990909,12.2045405 L19.9990909,13.5627234 C19.5627279,14.530906 17.6872833,15.2599983 15.4381815,15.2599983 C13.2045485,15.2599983 11.3381805,14.5409075 10.8863701,13.5818144 L10.8863701,12.2127223 C11.3318247,13.1754504 13.2018212,13.8981783 15.4409088,13.8981783 L15.4409088,13.8981783 Z M15.4390906,16.1590892 C17.68636,16.1590892 19.5627208,15.429997 20,14.4618144 L20,15.7036343 C19.5618195,16.6709071 17.6881924,17.3981818 15.4427341,17.3981818 C13.2018354,17.3981818 11.3309291,16.6745442 10.8881954,15.7099986 L10.8881954,14.4818151 C11.3400122,15.4409061 13.2063738,16.159999 15.4390906,16.159999 L15.4390906,16.1590892 Z M15.4409088,18.2972728 C17.6863671,18.2972728 19.5608955,17.5700001 19.9990909,16.6027252 L19.9990909,17.8754528 L19.9927273,17.8754528 C19.9863636,19.0472712 17.9481856,20 15.4363775,20 C12.9200248,20 10.8800278,19.0454538 10.8800278,17.8690821 C10.8800278,17.8309002 10.8827551,17.7927184 10.8863914,17.7545365 L10.8863914,16.609081 C11.3300264,17.5727189 13.2009263,18.2972642 15.4409301,18.2972642 L15.4409088,18.2972728 Z" id="Shape"></path>
                    </g>
                </g>
            </g>
        </g>
    </g>
</svg>