<?xml version="1.0" encoding="UTF-8"?>
<svg width="24px" height="24px" viewBox="0 0 24 24" version="1.1" xmlns="http://www.w3.org/2000/svg" xmlns:xlink="http://www.w3.org/1999/xlink">
    <title>-mockplus-</title>
    <g id="WinStore" stroke="none" stroke-width="1" fill="none" fill-rule="evenodd">
        <g id="总览" transform="translate(-735.000000, -171.000000)" fill="#3C8CF3" fill-rule="nonzero">
            <g id="-mockplus-" transform="translate(715.000000, 151.000000)">
                <g id="-mockplus-" transform="translate(20.000000, 20.000000)">
                    <g id="硬盘-(2)" transform="translate(3.000000, 2.000000)">
                        <path d="M10.0978762,8.09362589 C10.0978762,7.49075626 9.60604998,7.00066719 9.00104343,7.00066719 C8.39603688,7.00066719 7.90421065,7.49075626 7.90421065,8.09362589 C7.90421065,8.69649551 8.39603688,9.18658458 9.00104343,9.18658458 C9.60604998,9.18658458 10.0978762,8.69649551 10.0978762,8.09362589 Z M2.19573184,0 C0.983660696,0 0,0.980176094 0,2.18797638 L0,18.8120236 C0,20.0198137 0.983650406,21 2.19573184,21 L15.8042682,21 C17.0163393,21 18,20.0198239 18,18.8120236 L18,2.18797638 C18,0.980186347 17.0163496,0 15.8042682,0 L2.19573184,0 Z M14.9255844,8.09364639 C14.9255844,9.79562706 14.2053374,11.3315192 13.0467694,12.4080553 C12.4541091,11.9610285 11.9005476,11.5242555 11.585697,11.2043647 C10.6411454,10.2631494 9.11422786,10.2631494 8.16966597,11.2043647 C7.4535351,11.9179662 7.28273355,12.9719642 7.65108922,13.8475526 C5.02526643,13.2385306 3.07238431,10.8947176 3.07238431,8.09567051 C3.07238431,4.8291073 5.72494115,2.18794972 8.99898744,2.18794972 C12.273007,2.18794972 14.9255844,4.83116423 14.9255844,8.09364639 Z M2.19573184,17.71701 C2.19573184,17.1141404 2.68755807,16.6240513 3.29256461,16.6240513 C3.89757116,16.6240513 4.38939739,17.1141404 4.38939739,17.71701 C4.38939739,18.3198797 3.89757116,18.8099687 3.29256461,18.8099687 C2.68755807,18.8099687 2.19573184,18.3198797 2.19573184,17.71701 Z M10.3736238,12.4449693 C10.5279624,12.6028639 14.8432728,15.6295218 15.3433168,16.1277997 C15.9586136,16.7450248 15.9586136,17.7375035 15.3433168,18.3506188 C14.72802,18.9637423 13.7320213,18.9637423 13.1126187,18.3506188 C12.5858098,17.8256706 9.56077703,13.5379116 9.41673422,13.3984791 C9.15332872,13.1319045 9.15332872,12.7074342 9.41673422,12.444959 C9.68012943,12.1824942 10.1061022,12.1824942 10.3736238,12.4449693 Z" id="Shape"></path>
                    </g>
                </g>
            </g>
        </g>
    </g>
</svg>