<?xml version="1.0" encoding="UTF-8"?>
<svg width="24px" height="24px" viewBox="0 0 24 24" version="1.1" xmlns="http://www.w3.org/2000/svg" xmlns:xlink="http://www.w3.org/1999/xlink">
    <title>-mockplus-</title>
    <g id="WinStore" stroke="none" stroke-width="1" fill="none" fill-rule="evenodd">
        <g id="总览" transform="translate(-92.000000, -171.000000)" fill="#3C8CF3" fill-rule="nonzero">
            <g id="-mockplus-" transform="translate(72.000000, 151.000000)">
                <g id="-mockplus-" transform="translate(20.000000, 20.000000)">
                    <g id="存储池" transform="translate(1.000000, 2.000000)">
                        <path d="M11,10.9677009 C13.2632212,10.9677009 15.3772812,10.7630215 17.3436296,10.3538103 C19.3101427,9.94415691 20.8627614,9.33956144 21.9981936,8.53988263 L21.9981936,10.9677009 C21.9981936,11.6254187 21.5060111,12.2347352 20.5228283,12.7962386 C19.539498,13.3577419 18.2033817,13.8038468 16.5127019,14.1318929 C14.8237996,14.459645 12.9855931,14.6244822 11,14.6244822 C9.01424509,14.6244822 7.17617441,14.4596467 5.48564199,14.1318929 C3.79659227,13.8022212 2.46048176,13.3577419 1.47566014,12.7962386 C0.492329885,12.2347352 0,11.6254187 0,10.9677009 L0,8.53973275 C1.13560274,9.33941444 2.68836013,9.94400703 4.6547374,10.3536604 C6.62287772,10.7630198 8.73691754,10.9676981 10.9999783,10.9676981 L11,10.9677009 Z M11,16.3435098 C13.2632212,16.3435098 15.3772812,16.1388304 17.3436296,15.7293252 C19.3101427,15.3201128 20.8627614,14.7153732 21.9981936,13.9155445 L21.9981936,16.3435127 C21.9981936,17.0009364 21.5060111,17.610547 20.5228283,18.1720503 C19.539498,18.7332597 18.2033817,19.1796585 16.5127019,19.5074106 C14.8237996,19.8354596 12.9855931,20 11,20 C9.01424509,20 7.17617441,19.8354596 5.48564199,19.5074106 C3.79511247,19.1796585 2.45886323,18.7332597 1.47566014,18.1720503 C0.492329885,17.610547 0,17.0009364 0,16.3435127 L0,13.9155445 C1.13560274,14.7153732 2.68836013,15.3201156 4.6547374,15.7293252 C6.62287772,16.1389785 8.73691754,16.3435098 10.9999783,16.3435098 L11,16.3435098 Z M11.0000116,0 C12.9856104,0 14.8238285,0.164838424 16.5145054,0.492739245 C18.2050349,0.820638338 19.5411397,1.26689019 20.5244873,1.82824654 C21.5075227,2.38974989 22,2.99906645 22,3.65649021 L22,5.48488086 C22,6.14230462 21.5075198,6.75147419 20.5244873,7.31312452 C19.541157,7.87462787 18.2050407,8.31925703 16.5145054,8.64877882 C14.8239759,8.97638392 12.9857491,9.13974261 11.0000116,9.13974261 C9.01425665,9.13974261 7.17618597,8.9747595 5.48565355,8.64700625 C3.79512403,8.31910716 2.45887479,7.8728553 1.4756717,7.31135196 C0.492341446,6.74984861 1.15609746e-05,6.14067905 1.15609746e-05,5.48310829 L1.15609746e-05,3.65648732 C1.15609746e-05,2.99906357 0.492491738,2.38974701 1.4756717,1.82824366 C2.45885456,1.26688731 3.79497084,0.820488462 5.48565355,0.492736363 C7.17633048,0.164837271 9.01440984,0 11.0000116,0 L11.0000116,0 Z" id="Shape"></path>
                    </g>
                </g>
            </g>
        </g>
    </g>
</svg>