<?xml version="1.0" encoding="UTF-8"?>
<svg width="24px" height="24px" viewBox="0 0 24 24" version="1.1" xmlns="http://www.w3.org/2000/svg" xmlns:xlink="http://www.w3.org/1999/xlink">
    <title>alert</title>
    <defs>
        <linearGradient x1="20.8825367%" y1="-6.9388939e-16%" x2="72.4003287%" y2="100%" id="linearGradient-1">
            <stop stop-color="#F7D274" offset="0%"></stop>
            <stop stop-color="#F09455" offset="100%"></stop>
        </linearGradient>
        <path d="M4.19060551,19.2873038 L4.19060551,18.6364845 L4.19295085,13.0408448 C4.19295085,12.522042 4.26096633,11.9962937 4.38527012,11.4635945 C4.55882671,10.7247659 4.79570686,10.0971065 5.12640234,9.53429913 L5.12640214,9.53429947 C5.36847992,9.13148615 5.63232335,8.7418202 5.91678688,8.36699526 L5.91678661,8.36699563 C6.08131365,8.14346073 6.26492111,7.93424788 6.46560038,7.74165409 L6.46559967,7.74165478 C7.11906681,7.10074213 7.8800567,6.57650019 8.71479893,6.19219741 L8.71479929,6.19219725 C9.8195014,5.69335438 11.0256906,5.45243232 12.2398724,5.4881099 C12.7511614,5.52053511 13.2108506,5.57380476 13.6423956,5.65486764 C14.3647668,5.78688419 15.0589909,6.04165387 15.6969292,6.40296232 C16.1308214,6.65078294 16.5318776,6.91481685 16.9000979,7.19737678 C17.2167212,7.44288114 17.5263085,7.73007603 17.8452762,8.07285493 C18.2017716,8.4550081 18.5137033,8.89506235 18.81391,9.4161803 C19.1023891,9.91876871 19.3228518,10.423675 19.4706094,10.9424778 C19.5855318,11.3269461 19.6699647,11.7206806 19.723908,12.1167302 C19.7801966,12.5498362 19.8059956,13.0037897 19.8083409,13.4785851 C19.815377,16.0818597 19.815377,18.6851234 19.8106863,21.2860991 L22.1278991,21.2860991 C22.5570996,21.2860991 22.9370476,21.5779252 22.9909918,21.9855561 C23.0496256,22.4395069 22.8197807,22.8332413 22.3671256,22.9490462 L22.3671257,22.9490462 C22.3043458,22.9654241 22.2397378,22.9739828 22.1748064,22.9745231 L20.659706,22.9837874 L19.4893733,22.9907357 L16.801593,23 L4.70658168,23 C4.16011234,23 3.66524272,22.9953678 2.77635294,22.9861035 L2.63094065,22.9837874 L1.81241162,22.9745231 L1.8124116,22.9745231 C1.41120696,22.9600166 1.07582809,22.6685292 1.01029916,22.277384 C0.949319756,21.8604896 1.16274752,21.4783365 1.5544213,21.350953 L1.55442139,21.350953 C1.66985478,21.3112017 1.7910223,21.2900861 1.91326117,21.2884188 L4.19060473,21.2884188 L4.19060473,19.2873259 L4.19060551,19.2873038 Z M5.12173096,7.04683135 L5.06544237,7.05377959 L5.06544242,7.05377959 C4.7390263,7.06561616 4.43528228,6.88944016 4.28678264,6.60214403 L3.98423146,6.08565914 L3.23606316,4.80023487 L3.23606317,4.80023487 C2.99675639,4.39017747 3.13937954,3.86618523 3.55462142,3.62986638 C3.75943192,3.51330587 4.00353119,3.48429968 4.2304968,3.54955234 L4.23049678,3.54955233 C4.45704353,3.61152628 4.64939055,3.75981718 4.76523841,3.96181363 C4.97162983,4.32312207 5.14049478,4.61031506 5.52278997,5.25418614 L5.80423293,5.73592983 L5.80423297,5.73592988 C6.06039801,6.13593134 5.93969581,6.66526775 5.53463727,6.91823523 C5.49715478,6.94164377 5.45791026,6.9621804 5.41724889,6.97966446 L5.41724889,6.97966446 C5.34010136,7.01357268 5.25756161,7.03395002 5.17333156,7.03988262 L5.11938823,7.04683086 L5.12173096,7.04683135 Z M18.1970928,6.64151829 L18.1970927,6.64151818 C18.0210625,6.35870041 18.0247092,6.0012922 18.2064743,5.72203541 L19.1563443,4.11004388 L19.1821432,4.0637222 L19.1868339,4.05445789 C19.3603905,3.75336842 19.4917296,3.61440363 19.7755197,3.54955159 C20.0991791,3.47080497 20.4885076,3.57271238 20.6808288,3.81821693 C20.9083285,4.10077957 20.9388183,4.48988097 20.7629165,4.8071821 L20.6737928,4.96235935 L20.6644113,4.9785719 C20.347788,5.5159015 20.0311647,6.05323382 19.719233,6.5928786 C19.5456764,6.89396807 19.2853408,7.05841064 18.9476093,7.04219898 L18.9476092,7.04219899 C18.6402895,7.0619962 18.3486277,6.90628491 18.1970937,6.64151628 L18.1970928,6.64151829 Z M11.1610187,2.90567256 L11.1610187,1.81479899 C11.156328,1.44190924 11.3721009,1.18019403 11.719213,1.05049266 L11.719213,1.05049264 C11.9997847,0.948493575 12.3142258,1.00334233 12.5424337,1.19408968 C12.786351,1.37705989 12.8637487,1.61329922 12.8660931,1.94218435 C12.8754745,2.69490938 12.8754745,3.29709102 12.8660931,3.88074313 C12.859057,4.36017164 12.6362479,4.69137196 12.1437219,4.78632942 C11.6699605,4.87665653 11.1657076,4.52229632 11.1586716,4.02897133 L11.1586716,2.90567173 L11.1610187,2.90567256 Z" id="path-2"></path>
        <filter x="-9.1%" y="-9.1%" width="118.2%" height="118.2%" filterUnits="objectBoundingBox" id="filter-3">
            <feGaussianBlur stdDeviation="1.5" in="SourceAlpha" result="shadowBlurInner1"></feGaussianBlur>
            <feOffset dx="-1" dy="-1" in="shadowBlurInner1" result="shadowOffsetInner1"></feOffset>
            <feComposite in="shadowOffsetInner1" in2="SourceAlpha" operator="arithmetic" k2="-1" k3="1" result="shadowInnerInner1"></feComposite>
            <feColorMatrix values="0 0 0 0 0.779749774   0 0 0 0 0.470432001   0 0 0 0 0.0405327245  0 0 0 0.199355332 0" type="matrix" in="shadowInnerInner1"></feColorMatrix>
        </filter>
        <linearGradient x1="33.4094891%" y1="13.1522042%" x2="80.2469136%" y2="100%" id="linearGradient-4">
            <stop stop-color="#2A1F04" offset="0%"></stop>
            <stop stop-color="#9B590F" offset="100%"></stop>
        </linearGradient>
    </defs>
    <g id="WinStore" stroke="none" stroke-width="1" fill="none" fill-rule="evenodd">
        <g id="总览" transform="translate(-1209.000000, -363.000000)" fill-rule="nonzero">
            <g id="Group-8" transform="translate(1036.000000, 275.000000)">
                <g id="Group-5" transform="translate(157.000000, 56.000000)">
                    <g id="alert" transform="translate(16.000000, 32.000000)">
                        <g id="Shape">
                            <use fill="url(#linearGradient-1)" xlink:href="#path-2"></use>
                            <use fill="black" fill-opacity="1" filter="url(#filter-3)" xlink:href="#path-2"></use>
                        </g>
                        <polygon id="Path" fill="url(#linearGradient-4)" points="10.6186796 19 15.5 13.4128843 12.7643941 13.4128843 13.3948209 10.0131772 13.3497903 10 8.5 15.5695375 11.2243395 15.5695375 10.5849048 18.9846095 10.6186777 18.9999828"></polygon>
                    </g>
                </g>
            </g>
        </g>
    </g>
</svg>