<?xml version="1.0" encoding="UTF-8"?>
<svg width="118px" height="88px" viewBox="0 0 118 88" version="1.1" xmlns="http://www.w3.org/2000/svg" xmlns:xlink="http://www.w3.org/1999/xlink">
    <title>-mockplus-</title>
    <defs>
        <linearGradient x1="100%" y1="100%" x2="22.5748698%" y2="13.1522042%" id="linearGradient-1">
            <stop stop-color="#FFC542" offset="0%"></stop>
            <stop stop-color="#F3A366" offset="100%"></stop>
        </linearGradient>
        <filter x="-266.7%" y="-55.2%" width="633.3%" height="210.3%" filterUnits="objectBoundingBox" id="filter-2">
            <feOffset dx="0" dy="2" in="SourceAlpha" result="shadowOffsetOuter1"></feOffset>
            <feGaussianBlur stdDeviation="3" in="shadowOffsetOuter1" result="shadowBlurOuter1"></feGaussianBlur>
            <feColorMatrix values="0 0 0 0 0.76   0 0 0 0 0.554157012   0 0 0 0 0.0738567073  0 0 0 0.5 0" type="matrix" in="shadowBlurOuter1" result="shadowMatrixOuter1"></feColorMatrix>
            <feMerge>
                <feMergeNode in="shadowMatrixOuter1"></feMergeNode>
                <feMergeNode in="SourceGraphic"></feMergeNode>
            </feMerge>
        </filter>
        <linearGradient x1="50%" y1="100%" x2="50%" y2="-2.48949813e-15%" id="linearGradient-3">
            <stop stop-color="#FFFFFF" offset="0%"></stop>
            <stop stop-color="#F0E1B6" offset="100%"></stop>
        </linearGradient>
    </defs>
    <g id="Page-1" stroke="none" stroke-width="1" fill="none" fill-rule="evenodd">
        <g id="WinStore-集群概览-v4" transform="translate(-601.000000, -1320.000000)" fill-rule="nonzero">
            <g id="成功" transform="translate(601.000000, 1320.000000)">
                <circle id="Oval" fill="#FFC542" opacity="0.06" cx="59" cy="44" r="44"></circle>
                <circle id="Oval" fill="#FFC542" opacity="0.149999991" cx="59" cy="44" r="34"></circle>
                <circle id="Oval" fill="url(#linearGradient-1)" cx="59" cy="44" r="24"></circle>
                <g id="Group-2" filter="url(#filter-2)" transform="translate(56.000000, 30.000000)">
                    <path d="M1.05124922,0 L4.94875078,0 C5.50103553,-7.03002761e-16 5.94875078,0.44771525 5.94875078,1 C5.94875078,1.01665366 5.94833476,1.03330473 5.94750312,1.04993762 L5.04750312,19.0499376 C5.02089265,19.582147 4.58162497,20 4.04875078,20 L1.95124922,20 C1.41837503,20 0.979107348,19.582147 0.952496881,19.0499376 L0.0524968808,1.04993762 C0.0249170966,0.498341931 0.449715917,0.0288274454 1.0013116,0.00124766112 C1.01794449,0.000416016803 1.03459556,8.91237648e-16 1.05124922,0 Z" id="Rectangle" fill="url(#linearGradient-3)"></path>
                    <circle id="Oval" fill="#FFFFFF" opacity="0.5" cx="3" cy="26" r="3"></circle>
                </g>
                <circle id="Oval" fill="#87D487" cx="83" cy="7" r="3"></circle>
                <circle id="Oval" fill="#8CC8FF" cx="113" cy="54" r="5"></circle>
                <circle id="Oval" fill="#FFCE68" cx="2.5" cy="26.5" r="2.5"></circle>
            </g>
        </g>
    </g>
</svg>