<svg xmlns="http://www.w3.org/2000/svg" width="16" height="16" viewBox="0 0 16 16">
  <path fill-rule="evenodd" d="M1 7.36l-.009.008a.438.438 0 00.307.75h1.764v5.679c0 .242.196.437.437.437h9a.437.437 0 00.43-.437V8.118h1.65a.438.438 0 00.3-.755L8.303 1.135a.438.438 0 00-.599-.002L1 7.36zm6.997-5.307l5.483 5.19h-.996a.438.438 0 00-.43.438v5.678h-1.679V10.416a1.312 1.312 0 00-1.313-1.291H6.792A1.313 1.313 0 005.5 10.438v2.921H3.936V7.673a.437.437 0 00-.438-.43H2.411l5.586-5.19zM6.375 13.359H9.5v-2.921A.437.437 0 009.07 10H6.812a.438.438 0 00-.437.43v2.929z" clip-rule="evenodd"/>
</svg>
