<svg xmlns="http://www.w3.org/2000/svg" width="16" height="16" viewBox="0 0 16 16">
  <path fill-rule="evenodd" d="M7.12 8.172l3.496-2.018V2.12a.247.247 0 00-.246-.246H2.12a.247.247 0 00-.246.246v11.746c0 .136.11.246.246.246h7.42l-2.42-1.397V8.172zm5.244-1.515l-.874-.505V2.12c0-.617-.503-1.12-1.12-1.12H2.12A1.12 1.12 0 001 2.12v11.746c0 .618.503 1.12 1.12 1.12H11.055l1.232-.711 2.702-1.56V8.172l-2.625-1.515zM7.994 9.27v2.94l2.622 1.516v-2.986l-2.622-1.47zm3.058.712L8.354 8.469l2.7-1.559.435.252.874.505 1.372.79-1.372.78-.874.495-.437.249zm1.311 3.24l1.75-1.011V9.249l-1.75.993-.873.495v2.988l.873-.504zm-3.932-9.6H4.06a.438.438 0 00-.438.437c0 .24.197.437.437.437h4.37c.241 0 .438-.196.438-.437a.438.438 0 00-.437-.437zm-.875 3.495H4.934a.437.437 0 110-.874h2.622a.437.437 0 110 .874z" clip-rule="evenodd"/>
</svg>
