<?xml version="1.0" encoding="UTF-8"?>
<svg width="24px" height="24px" viewBox="0 0 24 24" version="1.1" xmlns="http://www.w3.org/2000/svg" xmlns:xlink="http://www.w3.org/1999/xlink">
    <title>-mockplus-</title>
    <g id="WinStore" stroke="none" stroke-width="1" fill="none" fill-rule="evenodd">
        <g id="存储介质图标" transform="translate(-216.000000, -593.000000)">
            <g id="Group" transform="translate(120.000000, 393.000000)">
                <g id="-mockplus-" transform="translate(96.000000, 200.000000)">
                    <g id="图标/ico-harddrive-nvme" transform="translate(1.000000, 3.000000)">
                        <rect id="Rectangle" fill="#83878F" fill-rule="nonzero" x="0" y="0" width="22" height="18" rx="1"></rect>
                        <path d="M19.5,14 C19.7761424,14 20,14.2238576 20,14.5 L20,15.5 C20,15.7761424 19.7761424,16 19.5,16 L18.5,16 C18.2238576,16 18,15.7761424 18,15.5 L18,14.5 C18,14.2238576 18.2238576,14 18.5,14 L19.5,14 Z M3.5,14 C3.77614237,14 4,14.2238576 4,14.5 L4,15.5 C4,15.7761424 3.77614237,16 3.5,16 L2.5,16 C2.22385763,16 2,15.7761424 2,15.5 L2,14.5 C2,14.2238576 2.22385763,14 2.5,14 L3.5,14 Z M19.5,2 C19.7761424,2 20,2.22385763 20,2.5 L20,3.5 C20,3.77614237 19.7761424,4 19.5,4 L18.5,4 C18.2238576,4 18,3.77614237 18,3.5 L18,2.5 C18,2.22385763 18.2238576,2 18.5,2 L19.5,2 Z M3.5,2 C3.77614237,2 4,2.22385763 4,2.5 L4,3.5 C4,3.77614237 3.77614237,4 3.5,4 L2.5,4 C2.22385763,4 2,3.77614237 2,3.5 L2,2.5 C2,2.22385763 2.22385763,2 2.5,2 L3.5,2 Z" id="Combined-Shape" fill-opacity="0.65" fill="#000000"></path>
                        <text id="NVMe" font-family="PTMono-Bold, PT Mono" font-size="7" font-weight="bold" line-spacing="7" fill="#FFFFFF">
                            <tspan x="2.243" y="10.8849487">NVMe</tspan>
                        </text>
                    </g>
                </g>
            </g>
        </g>
    </g>
</svg>