<svg xmlns="http://www.w3.org/2000/svg" width="16" height="16" viewBox="0 0 16 16">
  <path d="M13.819 2.063H2.137C1.481 2.063 1 2.542 1 3.2v9.975c0 .612.481 1.094 1.138 1.094h4.506c.262 0 .437-.175.437-.438 0-.262-.175-.437-.437-.437H2.138a.282.282 0 01-.263-.263V8.187h1.921l1.575 3.238c.088.175.219.262.394.262a.46.46 0 00.394-.218l3.543-5.95.92 1.618a.46.46 0 00.393.22h3.062V6.48h-2.756L10.14 4.512c-.131-.262-.569-.262-.744 0l-3.544 5.863-1.4-2.8c-.087-.175-.218-.263-.393-.263H1.875V3.2c0-.131.131-.263.263-.263h11.725c.087 0 .218.132.218.263v4.097c0 .262.175.437.438.437.262 0 .437-.175.437-.437V3.2c0-.656-.481-1.138-1.137-1.138z"/>
  <path fill-rule="evenodd" d="M11.147 8.231h.656c1.225 0 2.275 1.488 2.275 3.369v1.881h.481s.394 0 .394.438c0 .393-.35.393-.437.393H8.478s-.481-.043-.481-.437.437-.438.437-.438h.438v-1.88c0-1.838 1.006-3.326 2.275-3.326zm2.057 3.325c0-1.4-.744-2.416-1.4-2.416h-.7c-.656 0-1.4 1.06-1.4 2.46v1.837h3.5v-1.88z" clip-rule="evenodd"/>
</svg>
