<svg xmlns="http://www.w3.org/2000/svg" width="16" height="16" viewBox="0 0 16 16">
  <path d="M3.188 4.5h2.624c.263 0 .438.175.438.438 0 .262-.175.437-.438.437H3.188c-.262 0-.437-.175-.437-.438 0-.262.175-.437.438-.437zM3.625 6.25h1.75c.263 0 .438.175.438.438 0 .262-.175.437-.438.437h-1.75c-.263 0-.438-.175-.438-.438 0-.262.175-.437.438-.437zM10.188 4.5h2.624c.263 0 .438.175.438.438 0 .262-.175.437-.438.437h-2.624c-.263 0-.438-.175-.438-.438 0-.262.175-.437.438-.437zM10.625 6.25h1.75c.262 0 .438.175.438.438 0 .262-.176.437-.438.437h-1.75c-.262 0-.438-.175-.438-.438 0-.262.176-.437.438-.437z"/>
  <path fill-rule="evenodd" d="M14.563 9.313a1.29 1.29 0 01-1.313 1.312h-1.313v.481a1.85 1.85 0 011.27 1.269h.918c.262 0 .438.175.438.438 0 .262-.176.437-.438.437h-.875c-.219.744-.875 1.313-1.706 1.313-.832 0-1.532-.57-1.707-1.313h-3.63c-.22.744-.876 1.313-1.707 1.313-.831 0-1.531-.57-1.706-1.313h-.919c-.262 0-.438-.175-.438-.438 0-.262.175-.437.438-.437h.919a1.85 1.85 0 011.268-1.269v-.481H2.75a1.29 1.29 0 01-1.313-1.313V3.189A1.29 1.29 0 012.75 1.875h3.456A1.29 1.29 0 017.52 3.188v6.124a1.29 1.29 0 01-1.313 1.313H4.894v.481a1.85 1.85 0 011.268 1.269h3.632a1.85 1.85 0 011.268-1.269v-.481H9.75a1.29 1.29 0 01-1.313-1.313V3.189A1.29 1.29 0 019.75 1.875h3.5a1.29 1.29 0 011.313 1.313v6.124zm-12.25 0c0 .262.174.437.437.437h3.5c.263 0 .438-.175.438-.438V3.189c0-.263-.175-.438-.438-.438h-3.5c-.263 0-.438.175-.438.438v6.124zm2.93 3.937c-.13.262-.437.438-.743.438s-.612-.176-.744-.438a.74.74 0 01-.131-.438.74.74 0 01.131-.437c.132-.262.438-.438.744-.438s.612.176.744.438a.74.74 0 01.131.438.74.74 0 01-.131.437zm7.132-.438a.739.739 0 00-.131-.437c-.131-.262-.438-.438-.744-.438s-.613.176-.744.438a.739.739 0 00-.131.438c0 .175.044.306.131.437.131.262.438.438.744.438s.613-.176.744-.438a.739.739 0 00.131-.438zM9.75 9.75c-.262 0-.438-.175-.438-.438V3.189c0-.263.176-.438.438-.438h3.5c.262 0 .438.175.438.438v6.124c0 .263-.176.438-.438.438h-3.5z" clip-rule="evenodd"/>
</svg>
