<svg xmlns="http://www.w3.org/2000/svg" width="16" height="16" viewBox="0 0 16 16">
  <path fill-rule="evenodd" d="M14.125 12.799V5.81c0-.249-.083-.623-.481-1-.261-.245-.622-.463-1.076-.643a6.887 6.887 0 00-1.07-.322v-.659c0-.248-.083-.623-.48-.999-.262-.246-.623-.463-1.077-.644C9.066 1.193 7.91 1 6.687 1c-1.222 0-2.378.193-3.256.544-.453.18-.815.398-1.075.644-.398.376-.481.75-.481 1v6.994c0 .249.083.623.481 1 .261.245.622.463 1.076.643.323.129.682.237 1.07.322v.659c0 .249.083.623.48 1 .262.245.623.463 1.077.643.876.351 2.033.544 3.256.544 1.224 0 2.38-.193 3.257-.544.452-.182.815-.398 1.076-.644.398-.376.481-.75.481-1-.002 0-.003-.004-.003-.004l-.001-.002zM3.756 2.356c.777-.31 1.817-.481 2.932-.481 1.114 0 2.154.17 2.93.481.612.245 1.007.572 1.007.832 0 .147-.126.315-.346.477a11.153 11.153 0 00-.965-.041c-1.222 0-2.379.192-3.257.544-.203.08-.388.17-.553.265-.657-.077-1.256-.217-1.748-.414-.608-.244-1.002-.568-1.006-.827v-.007c.003-.26.396-.585 1.006-.829zm.745 8.894V5.829L4.5 5.81c0-.165.037-.384.176-.623a7.046 7.046 0 01-1.245-.357 4.158 4.158 0 01-.681-.342v2.205c.004.259.398.584 1.005.827.227.09.477.17.745.236v.898a6.882 6.882 0 01-1.07-.321 4.158 4.158 0 01-.68-.342v2.194c.003.26.396.585 1.006.829.227.09.477.17.745.235zm8.749 1.549v.01c-.003.26-.398.585-1.006.83-.777.31-1.817.48-2.931.48-1.115 0-2.155-.17-2.932-.48-.61-.244-1.003-.57-1.006-.83V7.114c.197.124.424.239.68.341.552.22 1.212.38 1.931.467.426.052.871.078 1.325.078.45 0 .89-.026 1.311-.077.304-.037.596-.085.875-.146a6.695 6.695 0 001.07-.321c.256-.103.485-.218.68-.342V9.36c-.043.252-.427.555-1.002.785-.776.31-1.817.481-2.931.481s-2.155-.17-2.931-.48c-.609-.244-1.003-.568-1.007-.828v1.297c.197.125.424.24.681.342.877.352 2.033.544 3.257.544 1.223 0 2.379-.192 3.256-.544.256-.102.483-.216.677-.339v2.18h.003zm-2.752-8.233a2.86 2.86 0 00.127-.077v-.003a2.869 2.869 0 01-.127.077 10.355 10.355 0 00-1.184-.067c-1.114 0-2.155.17-2.931.481-.267.107-.491.228-.66.354-.22.163-.345.33-.347.476v.007c.004.26.398.584 1.007.827.776.31 1.817.481 2.93.481a10.404 10.404 0 001.312-.082c.308-.04.6-.094.875-.162a5.68 5.68 0 00.745-.236c.611-.244 1.006-.574 1.006-.834s-.395-.586-1.006-.83a5.68 5.68 0 00-.745-.236 7.718 7.718 0 00-.875-.163v.003c-.027-.005-.056-.008-.084-.011a3.566 3.566 0 01-.043-.005z" clip-rule="evenodd"/>
</svg>
