<?xml version="1.0" encoding="UTF-8"?>
<svg width="16px" height="16px" viewBox="0 0 16 16" version="1.1" xmlns="http://www.w3.org/2000/svg" xmlns:xlink="http://www.w3.org/1999/xlink">
    <title>-mockplus-</title>
    <g id="WinStore" stroke="none" stroke-width="1" fill="none" fill-rule="evenodd">
        <g id="资源管理-存储池管理-新建" transform="translate(-323.000000, -419.000000)">
            <g id="Group" transform="translate(259.000000, 100.000000)">
                <g id="树" transform="translate(32.000000, 279.000000)">
                    <g id="-mockplus-" transform="translate(0.000000, 32.000000)">
                        <g id="4.数据展示/13.Tree树/1级-默认" transform="translate(8.000000, 5.000000)">
                            <g id="group" transform="translate(24.000000, 0.000000)">
                                <g id="形状-21-拷贝" transform="translate(0.000000, 3.000000)">
                                    <path d="M7,12 C7.00471767,10.4345467 7.7455556,8.96250175 9,8.026 L9,0 L0,0 L0,16 L9,16 L9,15.975 C7.74539842,15.0381834 7.00456051,13.5657681 7,12 L7,12 Z M1,2 L8,2 L8,3 L1,3 L1,2 Z M1,4 L8,4 L8,5 L1,5 L1,4 Z M4.5,10 C3.67157288,10 3,9.32842712 3,8.5 C3,7.67157288 3.67157288,7 4.5,7 C5.32842712,7 6,7.67157288 6,8.5 C6,9.32842712 5.32842712,10 4.5,10 Z" id="形状_21" fill="#333333"></path>
                                    <path d="M12,16.0000065 C10.6009237,15.9972958 9.30579793,15.2609113 8.588,14.06 C8.588,14.052 8.58,14.044 8.575,14.036 C8.45858635,13.8474226 8.35823294,13.6493919 8.275,13.444 C8.249,13.379 8.235,13.308 8.212,13.244 C7.98307602,12.6027303 7.93464853,11.910909 8.072,11.244 C8.1083116,11.0805049 8.15507429,10.9195076 8.212,10.762 C8.235,10.695 8.249,10.624 8.275,10.562 C8.35663528,10.3567777 8.45531343,10.1587524 8.57,9.97 C8.57,9.962 8.578,9.953 8.583,9.945 C8.7051075,9.74476563 8.84464886,9.5556988 9,9.38 L9,9.38 C10.2115541,7.99313171 12.214439,7.61470143 13.8484842,8.46391481 C15.4825293,9.31312819 16.3238795,11.1697077 15.8851829,12.95823 C15.4464863,14.7467524 13.8415363,16.0032926 12,16.0000065 L12,16.0000065 Z M11,10 L11,14 L14,12 L11,10 Z" id="形状_22" fill="#3C8BF2"></path>
                                </g>
                            </g>
                        </g>
                    </g>
                </g>
            </g>
        </g>
    </g>
</svg>