<?xml version="1.0" encoding="UTF-8"?>
<svg width="16px" height="16px" viewBox="0 0 16 16" version="1.1" xmlns="http://www.w3.org/2000/svg" xmlns:xlink="http://www.w3.org/1999/xlink">
    <title>-mockplus-</title>
    <g id="WinStore" stroke="none" stroke-width="1" fill="none" fill-rule="evenodd">
        <g id="资源管理-存储池管理-新建" transform="translate(-367.000000, -451.000000)" fill="#666666">
            <g id="Group" transform="translate(259.000000, 100.000000)">
                <g id="树" transform="translate(32.000000, 279.000000)">
                    <g id="item" transform="translate(24.000000, 64.000000)">
                        <g id="4.数据展示/13.Tree树/1级-默认" transform="translate(28.000000, 5.000000)">
                            <g id="group" transform="translate(24.000000, 0.000000)">
                                <g id="硬盘" transform="translate(0.000000, 3.000000)">
                                    <path d="M14,1 C14,0.44771525 13.5522847,0 13,0 L3,0 C2.44771525,0 2,0.44771525 2,1 L0,10 C0,10.5522847 0.44771525,11 1,11 L15,11 C15.5522847,11 16,10.5522847 16,10 L14,1 Z M8,8 C5.791,8 4,6.657 4,5 C4,3.343 5.791,2 8,2 C10.209,2 12,3.343 12,5 C12,6.657 10.209,8 8,8 Z M9,5 C9,5.55228475 8.55228475,6 8,6 C7.44771525,6 7,5.55228475 7,5 C7,4.44771525 7.44771525,4 8,4 C8.55228475,4 9,4.44771525 9,5 Z M15,12 L1,12 C0.44771525,12 0,12.4477153 0,13 L0,15 C0,15.5522847 0.44771525,16 1,16 L15,16 C15.5522847,16 16,15.5522847 16,15 L16,13 C16,12.4477153 15.5522847,12 15,12 Z M14,15 C13.4477153,15 13,14.5522847 13,14 C13,13.4477153 13.4477153,13 14,13 C14.5522847,13 15,13.4477153 15,14 C15,14.5522847 14.5522847,15 14,15 Z" id="形状_4"></path>
                                </g>
                            </g>
                        </g>
                    </g>
                </g>
            </g>
        </g>
    </g>
</svg>